<svg width="249.85" height="100.005" viewBox="0 0 249.85 100.005" xmlns="http://www.w3.org/2000/svg"><g id="svgGroup" stroke-linecap="round" fill-rule="evenodd" font-size="9pt" stroke=" #25096c" stroke-width="0.25mm" fill=" #25096c" style="stroke: #25096c;stroke-width:0.25mm;fill: #25096c"><path d="M 53.25 98.602 L 2.55 98.602 Q 1.05 97.202 0.45 95.302 Q -0.15 93.402 0.05 91.702 L 40.35 35.002 L 1.45 35.002 A 9.069 9.069 0 0 1 0.995 33.521 Q 0.826 32.765 0.736 31.877 A 20.013 20.013 0 0 1 0.65 30.602 A 14.301 14.301 0 0 1 0.64 30.09 Q 0.637 27.756 1.45 26.402 L 49.05 26.402 A 5.195 5.195 0 0 1 51.249 28.513 A 7.076 7.076 0 0 1 51.7 29.452 A 9.529 9.529 0 0 1 52.385 32.744 Q 52.388 32.855 52.388 32.965 A 9.233 9.233 0 0 1 52.35 33.802 L 12.35 90.002 L 53.25 90.002 A 5.48 5.48 0 0 1 53.816 91.356 Q 54.15 92.556 54.15 94.202 A 13.374 13.374 0 0 1 54.044 95.94 Q 53.923 96.858 53.666 97.624 A 6.518 6.518 0 0 1 53.25 98.602 Z" id="0" vector-effect="non-scaling-stroke"/><path d="M 54.64 99.179 A 2.33 2.33 0 0 0 56.45 100.002 A 26.445 26.445 0 0 0 59.045 99.873 Q 63.312 99.452 67.763 97.658 A 45.586 45.586 0 0 0 74.85 94.002 A 17.771 17.771 0 0 0 77.575 96.226 A 21.465 21.465 0 0 0 81.85 98.402 Q 86.05 100.002 90.85 100.002 A 4.391 4.391 0 0 0 91.697 99.924 A 2.913 2.913 0 0 0 93.45 98.902 A 3.452 3.452 0 0 0 93.812 98.361 Q 94.111 97.811 94.244 97.113 A 6.484 6.484 0 0 0 94.35 95.902 Q 94.35 94.835 94.123 93.996 A 4.382 4.382 0 0 0 93.55 92.702 A 3.39 3.39 0 0 0 93.423 92.524 Q 93.026 92.004 92.496 91.748 A 2.604 2.604 0 0 0 91.35 91.502 A 22.986 22.986 0 0 1 89.667 91.442 Q 87.878 91.311 86.366 90.89 A 11.337 11.337 0 0 1 82.75 89.202 Q 91.65 83.002 95.4 77.702 Q 99.15 72.402 99.15 66.002 A 20.946 20.946 0 0 0 98.964 63.172 A 16.348 16.348 0 0 0 97.25 57.702 Q 95.35 54.102 91.95 52.052 Q 88.55 50.002 84.15 50.002 A 19.562 19.562 0 0 0 83.988 50.002 A 16.28 16.28 0 0 0 74.85 52.752 A 17.863 17.863 0 0 0 72.353 54.772 A 19.23 19.23 0 0 0 68.45 60.252 A 22.126 22.126 0 0 0 66.716 65.407 A 28.397 28.397 0 0 0 66.15 71.202 Q 66.15 80.402 70.05 87.202 A 55.668 55.668 0 0 1 68.083 88.283 Q 65.288 89.743 63.05 90.452 A 21.987 21.987 0 0 1 62.092 90.732 A 19.075 19.075 0 0 1 57.15 91.402 Q 54.295 91.402 53.704 94.106 A 7.506 7.506 0 0 0 53.55 95.702 Q 53.55 96.624 53.738 97.381 A 4.494 4.494 0 0 0 54.35 98.802 A 3.397 3.397 0 0 0 54.64 99.179 Z M 76.266 80.02 A 16.697 16.697 0 0 0 77.65 83.002 Q 82.267 79.805 85.194 76.71 A 26.229 26.229 0 0 0 87.3 74.202 A 20.008 20.008 0 0 0 89.093 71.293 Q 89.941 69.585 90.259 67.945 A 10.195 10.195 0 0 0 90.45 66.002 A 11.946 11.946 0 0 0 90.248 63.734 Q 89.993 62.418 89.418 61.387 A 6.361 6.361 0 0 0 88.7 60.352 A 5.718 5.718 0 0 0 85.054 58.386 A 8.254 8.254 0 0 0 83.85 58.302 A 7.438 7.438 0 0 0 78.144 60.887 A 10.809 10.809 0 0 0 77.4 61.802 Q 74.85 65.302 74.85 70.402 Q 74.85 76.02 76.266 80.02 Z" id="1" vector-effect="non-scaling-stroke"/><path d="M 113.25 44.902 L 113.35 44.902 L 113.25 44.802 Q 113.25 38.683 113.345 33.84 A 326.244 326.244 0 0 1 113.45 29.702 A 137.583 137.583 0 0 1 113.656 25.333 Q 113.786 23.31 113.971 21.563 A 62.719 62.719 0 0 1 114.25 19.302 A 57.737 57.737 0 0 1 114.795 16.095 Q 115.098 14.588 115.46 13.289 A 29.525 29.525 0 0 1 115.8 12.152 A 24.764 24.764 0 0 1 117.45 8.195 A 21.745 21.745 0 0 1 118.25 6.802 A 15.388 15.388 0 0 1 120.538 3.871 A 12.032 12.032 0 0 1 123.7 1.602 Q 126.95 0.002 130.85 0.002 Q 138.65 0.002 142.85 6.902 Q 145.959 12.009 146.767 19.966 A 58.875 58.875 0 0 1 147.05 25.902 A 80.839 80.839 0 0 1 144.105 47.159 A 98.376 98.376 0 0 1 141.35 55.702 A 112.085 112.085 0 0 1 127.074 82.173 A 126.834 126.834 0 0 1 125.05 84.902 A 11.67 11.67 0 0 0 126.68 87.672 A 9.515 9.515 0 0 0 129.15 89.852 A 11.281 11.281 0 0 0 134.066 91.444 A 13.963 13.963 0 0 0 135.35 91.502 A 2.734 2.734 0 0 1 136.61 91.788 Q 137.174 92.076 137.6 92.652 Q 138.302 93.601 138.424 95.13 A 8.423 8.423 0 0 1 138.45 95.802 Q 138.45 99.414 135.713 99.919 A 5.307 5.307 0 0 1 134.75 100.002 A 21.659 21.659 0 0 1 129.351 99.353 A 18.044 18.044 0 0 1 125.15 97.702 A 19.09 19.09 0 0 1 121.124 94.797 A 16.093 16.093 0 0 1 118.65 91.802 A 32.334 32.334 0 0 1 112.366 96.718 A 22.752 22.752 0 0 1 100.65 100.002 A 2.33 2.33 0 0 1 98.84 99.179 A 3.397 3.397 0 0 1 98.55 98.802 A 4.494 4.494 0 0 1 97.938 97.381 Q 97.75 96.624 97.75 95.702 A 6.8 6.8 0 0 1 97.861 94.434 Q 97.998 93.713 98.304 93.143 A 3.598 3.598 0 0 1 98.7 92.552 A 3.082 3.082 0 0 1 100.956 91.412 A 4.211 4.211 0 0 1 101.25 91.402 A 10.365 10.365 0 0 0 104.36 90.896 Q 105.614 90.503 106.935 89.802 A 20.465 20.465 0 0 0 108.15 89.102 A 28.285 28.285 0 0 0 112.025 86.178 A 38.283 38.283 0 0 0 115.35 82.802 Q 114.663 79.622 114.233 75.482 A 102.72 102.72 0 0 1 114.1 74.102 Q 113.791 70.664 113.599 66.234 A 283.327 283.327 0 0 1 113.45 62.002 Q 113.25 54.902 113.25 44.902 Z M 122.285 62.015 A 416.054 416.054 0 0 0 122.3 62.702 Q 122.45 69.502 122.75 73.902 A 131.263 131.263 0 0 0 130.129 59.901 A 104.779 104.779 0 0 0 134.25 49.252 A 80.319 80.319 0 0 0 137.689 33.716 A 69.028 69.028 0 0 0 138.15 25.802 A 58.607 58.607 0 0 0 137.983 21.213 Q 137.628 16.711 136.521 13.733 A 15.324 15.324 0 0 0 136.25 13.052 Q 135.196 10.583 133.65 9.484 A 4.716 4.716 0 0 0 130.85 8.602 A 5.587 5.587 0 0 0 126.245 10.952 Q 125.571 11.824 125.031 13.019 A 13.779 13.779 0 0 0 124.95 13.202 A 20.885 20.885 0 0 0 124.249 15.177 Q 123.706 16.97 123.3 19.252 A 43.832 43.832 0 0 0 122.933 21.782 Q 122.596 24.636 122.424 28.541 A 149.044 149.044 0 0 0 122.4 29.102 Q 122.176 34.648 122.153 43.315 A 767.186 767.186 0 0 0 122.15 45.402 Q 122.15 55.379 122.285 62.015 Z" id="2" vector-effect="non-scaling-stroke"/><path d="M 142.94 99.179 A 2.33 2.33 0 0 0 144.75 100.002 A 26.445 26.445 0 0 0 147.345 99.873 Q 151.612 99.452 156.063 97.658 A 45.586 45.586 0 0 0 163.15 94.002 A 17.771 17.771 0 0 0 165.875 96.226 A 21.465 21.465 0 0 0 170.15 98.402 Q 174.35 100.002 179.15 100.002 A 4.391 4.391 0 0 0 179.997 99.924 A 2.913 2.913 0 0 0 181.75 98.902 A 3.452 3.452 0 0 0 182.112 98.361 Q 182.411 97.811 182.544 97.113 A 6.484 6.484 0 0 0 182.65 95.902 Q 182.65 94.835 182.423 93.996 A 4.382 4.382 0 0 0 181.85 92.702 A 3.39 3.39 0 0 0 181.723 92.524 Q 181.326 92.004 180.796 91.748 A 2.604 2.604 0 0 0 179.65 91.502 A 22.986 22.986 0 0 1 177.967 91.442 Q 176.178 91.311 174.666 90.89 A 11.337 11.337 0 0 1 171.05 89.202 Q 179.95 83.002 183.7 77.702 Q 187.45 72.402 187.45 66.002 A 20.946 20.946 0 0 0 187.264 63.172 A 16.348 16.348 0 0 0 185.55 57.702 Q 183.65 54.102 180.25 52.052 Q 176.85 50.002 172.45 50.002 A 19.562 19.562 0 0 0 172.288 50.002 A 16.28 16.28 0 0 0 163.15 52.752 A 17.863 17.863 0 0 0 160.653 54.772 A 19.23 19.23 0 0 0 156.75 60.252 A 22.126 22.126 0 0 0 155.016 65.407 A 28.397 28.397 0 0 0 154.45 71.202 Q 154.45 80.402 158.35 87.202 A 55.668 55.668 0 0 1 156.383 88.283 Q 153.588 89.743 151.35 90.452 A 21.987 21.987 0 0 1 150.392 90.732 A 19.075 19.075 0 0 1 145.45 91.402 Q 142.595 91.402 142.004 94.106 A 7.506 7.506 0 0 0 141.85 95.702 Q 141.85 96.624 142.038 97.381 A 4.494 4.494 0 0 0 142.65 98.802 A 3.397 3.397 0 0 0 142.94 99.179 Z M 164.566 80.02 A 16.697 16.697 0 0 0 165.95 83.002 Q 170.567 79.805 173.494 76.71 A 26.229 26.229 0 0 0 175.6 74.202 A 20.008 20.008 0 0 0 177.393 71.293 Q 178.241 69.585 178.559 67.945 A 10.195 10.195 0 0 0 178.75 66.002 A 11.946 11.946 0 0 0 178.548 63.734 Q 178.293 62.418 177.718 61.387 A 6.361 6.361 0 0 0 177 60.352 A 5.718 5.718 0 0 0 173.354 58.386 A 8.254 8.254 0 0 0 172.15 58.302 A 7.438 7.438 0 0 0 166.444 60.887 A 10.809 10.809 0 0 0 165.7 61.802 Q 163.15 65.302 163.15 70.402 Q 163.15 76.02 164.566 80.02 Z" id="3" vector-effect="non-scaling-stroke"/><path d="M 240.85 65.002 L 240.85 81.102 A 33.071 33.071 0 0 0 240.952 83.805 Q 241.169 86.432 241.843 88.081 A 6.63 6.63 0 0 0 242.3 89.002 A 4.754 4.754 0 0 0 245.767 91.31 A 7.31 7.31 0 0 0 246.95 91.402 Q 248.35 91.402 249.1 92.602 Q 249.85 93.802 249.85 95.802 Q 249.85 97.402 249 98.702 A 2.76 2.76 0 0 1 247.185 99.91 A 4.489 4.489 0 0 1 246.25 100.002 Q 231.75 100.002 231.75 82.202 L 231.75 66.702 Q 231.75 63.24 231.158 61.376 A 5.331 5.331 0 0 0 230.75 60.402 Q 229.75 58.602 227.15 58.602 Q 226.264 58.602 225.184 58.795 A 15.462 15.462 0 0 0 225.15 58.802 A 47.033 47.033 0 0 0 224.506 58.924 Q 223.629 59.097 222.186 59.402 A 397.538 397.538 0 0 0 221.25 59.602 Q 216.35 60.602 213.85 60.802 Q 213.95 62.402 213.95 64.002 Q 213.95 74.433 211.058 82.345 A 39.301 39.301 0 0 1 210.85 82.902 A 34.428 34.428 0 0 1 207.649 89.3 A 25.607 25.607 0 0 1 202.1 95.502 Q 196.45 100.002 188.95 100.002 A 2.33 2.33 0 0 1 187.14 99.179 A 3.397 3.397 0 0 1 186.85 98.802 A 4.494 4.494 0 0 1 186.238 97.381 Q 186.05 96.624 186.05 95.702 A 7.506 7.506 0 0 1 186.204 94.106 Q 186.795 91.402 189.65 91.402 A 10.05 10.05 0 0 0 196.116 89.038 A 14.106 14.106 0 0 0 197.5 87.752 A 20.835 20.835 0 0 0 200.427 83.748 Q 201.54 81.798 202.431 79.428 A 38.327 38.327 0 0 0 203 77.802 A 41.415 41.415 0 0 0 204.762 69.38 A 52.36 52.36 0 0 0 205.05 63.802 Q 205.05 62.002 204.85 60.502 A 23.04 23.04 0 0 0 204.686 59.447 Q 204.595 58.947 204.491 58.52 A 10.625 10.625 0 0 0 204.35 58.002 A 6.614 6.614 0 0 1 203.773 57.332 Q 203.122 56.477 202.4 55.102 Q 201.35 53.102 200.6 50.852 A 20.559 20.559 0 0 1 200.207 49.536 Q 199.881 48.287 199.853 47.374 A 5.522 5.522 0 0 1 199.85 47.202 Q 200.986 45.404 203.42 44.367 A 11.918 11.918 0 0 1 203.7 44.252 A 10.302 10.302 0 0 1 207.415 43.541 Q 208.313 43.531 209.261 43.66 A 14.269 14.269 0 0 1 209.55 43.702 Q 211.45 47.202 212.65 52.502 A 24.048 24.048 0 0 0 214.73 52.332 Q 217.244 52.027 220.75 51.202 Q 223.481 50.604 225.302 50.335 A 30.977 30.977 0 0 1 225.9 50.252 Q 227.393 50.06 228.564 50.015 A 17.951 17.951 0 0 1 229.25 50.002 Q 234.65 50.002 237.75 54.052 Q 240.414 57.532 240.789 63.117 A 28.164 28.164 0 0 1 240.85 65.002 Z" id="4" vector-effect="non-scaling-stroke"/></g></svg>